<?xml version="1.0" encoding="utf-8"?>
<!-- Generator: Adobe Illustrator 17.0.0, SVG Export Plug-In . SVG Version: 6.00 Build 0)  -->
<!DOCTYPE svg PUBLIC "-//W3C//DTD SVG 1.1//EN" "http://www.w3.org/Graphics/SVG/1.1/DTD/svg11.dtd">
<svg version="1.1" id="Layer_1" xmlns="http://www.w3.org/2000/svg" xmlns:xlink="http://www.w3.org/1999/xlink" x="0px" y="0px"
	 width="772.48px" height="463.733px" viewBox="0 0 772.48 463.733" enable-background="new 0 0 772.48 463.733"
	 xml:space="preserve">
<g>
	<path fill="#0085C9" d="M719.77,364.74c-5.122-19.054-14.549-45.242-30.374-61.799c-9.825-10.279-20.786-15.491-32.578-15.491
		c-15.555,0-36.287,8.983-46.725,51.778c-5.459,22.381-5.79,44.39-5.802,45.315c-0.082,6.624,5.219,12.058,11.843,12.144
		c0.054,0.001,0.106,0.001,0.159,0.001c6.552,0,11.906-5.27,11.996-11.84c0.313-22.994,7.933-73.398,28.528-73.398
		c4.984,0,10.107,2.716,15.229,8.074c9.616,10.061,18.333,28.331,24.546,51.446c4.537,16.883,7.291,34.791,7.757,49.826
		c-26.113,3.533-97.858,11.537-148.747,1.058c2.465-27.989,10.366-67.436,24.657-78.486c2.948-2.281,5.726-2.934,9.288-2.178
		c6.486,1.369,12.853-2.771,14.226-9.255c1.372-6.483-2.771-12.853-9.255-14.225c-10.436-2.209-20.448,0.1-28.952,6.681
		c-30.037,23.244-34.23,97.826-34.61,106.255c-0.253,5.617,3.43,10.657,8.859,12.124c23.145,6.252,50.904,8.327,77.564,8.327
		c50.965-0.001,97.905-7.585,100.861-8.071c5.595-0.922,9.781-5.634,10.037-11.299C729.135,412.788,725.953,387.747,719.77,364.74z"
		/>
	<path fill="#009572" d="M368.347,274.782c-55.874,0-101.33,45.457-101.33,101.331c0,20.489,6.091,40.234,17.615,57.101
		c3.739,5.473,11.207,6.877,16.678,3.139c5.473-3.739,6.877-11.206,3.139-16.678c-3.696-5.409-6.649-11.212-8.842-17.279h60.74
		v49.338c0,6.627,5.373,12,12,12s12-5.373,12-12v-49.338h60.741c-2.193,6.068-5.146,11.87-8.842,17.279
		c-3.738,5.472-2.334,12.938,3.139,16.678c2.07,1.415,4.427,2.093,6.759,2.093c3.83,0,7.595-1.83,9.919-5.231
		c11.524-16.866,17.615-36.611,17.615-57.101C469.678,320.239,424.221,274.782,368.347,274.782z M291.016,376.113
		c0-38.559,28.369-70.612,65.33-76.396v61.661l-28.261-28.261c-4.686-4.686-12.285-4.686-16.971,0
		c-4.687,4.687-4.687,12.284,0,16.971l28.307,28.307h-48.363C291.037,377.636,291.016,376.876,291.016,376.113z M397.722,378.396
		l28.307-28.307c4.687-4.687,4.687-12.284,0-16.971c-4.686-4.686-12.285-4.686-16.971,0l-28.711,28.711v-62.111
		c36.962,5.784,65.331,37.836,65.331,76.396c0,0.763-0.02,1.523-0.042,2.282H397.722z"/>
	<g>
		<path fill="#303030" d="M116.907,84.02c6.627,0,12-5.373,12-12s-5.373-12-12-12h-7.052V32.008c0-6.627-5.373-12-12-12
			s-12,5.373-12,12V60.02h-7.052c-6.627,0-12,5.373-12,12s5.373,12,12,12h7.052v18.288c-9.505,2.815-16.461,11.622-16.461,22.028
			v41.022c0,12.668,10.306,22.974,22.974,22.974h10.975c12.668,0,22.974-10.306,22.974-22.974v-41.022
			c0-10.406-6.956-19.212-16.461-22.028V84.02H116.907z M102.316,164.332h-8.922v-38.97h8.922V164.332z"/>
		<path fill="#303030" d="M176.406,20.008h-14.632c-12.668,0-22.974,10.306-22.974,22.974v104.716c0,0.1,0.002,0.228,0.005,0.327
			c0.004,0.176,0.364,17.762-6.197,29.974c-3.137,5.838-0.946,13.114,4.892,16.25c1.808,0.971,3.752,1.432,5.669,1.432
			c4.276,0,8.416-2.292,10.582-6.323c9.259-17.235,9.128-38.574,9.05-41.816v-23.444h12.579v30.287c0,6.627,5.373,12,12,12
			s12-5.373,12-12V42.982C199.38,30.314,189.074,20.008,176.406,20.008z M175.38,44.008V60.02h-12.579V44.008H175.38z
			 M162.801,100.097V84.02h12.579v16.077H162.801z"/>
	</g>
	<path fill="#303030" d="M347.643,69.958h-17.843V49.387c12.433-2.929,21.073-6.011,21.751-6.256
		c6.23-2.25,9.454-9.121,7.209-15.353c-2.245-6.231-9.121-9.465-15.353-7.223c-0.284,0.102-28.688,10.202-55.281,10.202
		c-6.627,0-12,5.373-12,12s5.373,12,12,12c5.951,0,11.913-0.417,17.674-1.089v16.291h-17.842c-6.627,0-12,5.373-12,12
		s5.373,12,12,12h17.842v15.861c-9.505,2.816-16.461,11.622-16.461,22.027v41.023c0,12.667,10.307,22.974,22.975,22.974h10.974
		c12.668,0,22.974-10.306,22.974-22.974v-41.023c0-10.406-6.956-19.212-16.461-22.028v-15.86h17.843c6.627,0,12-5.373,12-12
		S354.27,69.958,347.643,69.958z M322.262,171.843h-8.922v-38.97h8.922V171.843z"/>
	<path fill="#EC6C0F" d="M448.735,171.843c-20.067,0-35.067-6.64-44.71-19.728c16.697,6.163,31.649,7.227,32.619,7.289
		c0.264,0.017,0.523,0.025,0.784,0.025c6.264,0,11.527-4.864,11.949-11.204c0.439-6.603-4.562-12.316-11.164-12.77
		c-0.288-0.02-28.688-2.139-45.577-16.98v-1.347c21.01,9.504,42.888,10.143,44.073,10.17c0.093,0.002,0.185,0.003,0.276,0.003
		c6.491,0,11.818-5.181,11.979-11.704c0.164-6.616-5.072-12.115-11.688-12.292c-0.281-0.007-26.911-0.878-44.641-13.667V31.844
		c0-6.627-5.373-12-12-12s-12,5.373-12,12v87.998c0,0.085,0.001,0.17,0.003,0.255c0.017,0.772,0.517,19.122,10.474,37.469
		c9.476,17.462,29.247,38.277,69.623,38.277c6.627,0,12-5.373,12-12S455.362,171.843,448.735,171.843z"/>
	<g>
		<path fill="#303030" d="M600.727,157.661c-0.098,0.052-3.806,2.003-9.679,4.439v-17.351l8.113-3.024
			c6.21-2.314,9.367-9.225,7.053-15.435c-2.281-6.121-9.023-9.269-15.166-7.139v-9.964c9.505-2.815,16.461-11.622,16.461-22.028
			V46.137c0-12.668-10.306-22.974-22.974-22.974h-10.974c-12.668,0-22.974,10.306-22.974,22.974V87.16
			c0,10.405,6.956,19.212,16.46,22.027v60.565c-1.952,0.422-3.936,0.795-5.938,1.105v-34.711c0-6.627-5.373-12-12-12
			s-12,5.373-12,12v47.101c0,0.101,0.013,0.198,0.015,0.298c-0.002,0.1-0.015,0.198-0.015,0.298c0,6.627,5.373,12,12,12
			c30.787,0,61.632-16.321,62.93-17.016c5.838-3.125,8.034-10.384,4.917-16.226C613.84,156.76,606.572,154.551,600.727,157.661z
			 M574.589,47.163h8.921v38.97h-8.921V47.163z"/>
		<path fill="#303030" d="M699.276,36.292h-37.631c0.273-1.013,0.422-1.65,0.457-1.803c1.461-6.464-2.596-12.889-9.061-14.35
			c-6.467-1.46-12.889,2.597-14.35,9.061c-0.048,0.211-5.197,21.534-20.522,36.866c-4.686,4.688-4.684,12.286,0.004,16.971
			c2.344,2.342,5.413,3.513,8.483,3.513c3.072,0,6.145-1.172,8.487-3.517c7.374-7.378,12.896-15.604,16.964-23.162
			c0.994,0.266,2.033,0.422,3.11,0.422h43.033v57.833h-17.135c-6.627,0-12,5.373-12,12s5.373,12,12,12h18.16
			c12.668,0,22.975-10.306,22.975-22.974V59.266C722.251,46.598,711.944,36.292,699.276,36.292z"/>
	</g>
	<g>
		<path fill="#E73828" d="M678.322,195.843h-17.709c-0.067,0-0.134,0-0.201-0.001c-12.319-0.207-30.648-8.829-30.648-31.738v-51.101
			c0-0.856,0.092-8.638,3.415-16.637c5.129-12.348,15.55-19.43,28.59-19.43c8.199,0,15.388,2.886,20.788,8.345
			c9.941,10.048,10.211,25.32,10.199,27.437v17.406c0,6.627-5.373,12-12,12s-12-5.373-12-12v-17.448
			c0-0.106-0.002-0.023,0.001-0.129c-0.007-1.054-0.306-4.691-1.596-7.712c-1.541-3.611-3.279-3.898-5.393-3.898
			c-2.821,0-4.655,0.677-6.258,4.247c-1.378,3.067-1.729,6.75-1.747,7.91v51.01c0,4.718,1.755,5.782,2.698,6.353
			c1.624,0.984,3.658,1.324,4.443,1.386h17.417c13.934,0,21.23-13.178,21.301-13.311c3.077-5.871,10.33-8.133,16.199-5.057
			c5.87,3.077,8.134,10.33,5.057,16.2C720.319,170.744,706.834,195.843,678.322,195.843z"/>
	</g>
	<path fill="#0085C9" d="M43.809,118.218c-4.585-3.639-4.56-10.082-4.56-10.082l-0.002-0.406c0.007-0.058-0.013-6.369,4.562-9.999
		c13.249-10.515,14.787-20.824,14.788-27.666c0-0.003,0-0.006,0-0.008c0-10.577-4.976-19.888-14.788-27.674
		c-4.661-3.699-5.12-9.585-5.16-10.346c0-0.009,0.001-0.017,0.001-0.026c0-6.628-5.373-12.002-12.002-12.002
		c-6.628,0-12.002,5.373-12.002,12.002c0,0.043,0.006,0.085,0.006,0.127h-0.006c0,1.816,0.396,18.057,14.243,29.045
		c5.699,4.522,5.707,7.455,5.707,8.868c0,0.002,0,0.004,0,0.007c0,2.037,0,4.346-5.707,8.875
		c-13.134,10.422-13.694,25.467-13.63,29.043c-0.064,3.576,0.496,18.621,13.63,29.043c3.68,2.92,5.707,6.072,5.707,8.875
		s-2.027,5.954-5.707,8.875c-13.018,10.331-14.147,25.303-14.235,28.566h0c0,0.002,0,0.005,0,0.007
		c-0.005,0.204-0.007,0.365-0.007,0.472h0.001c0,0.043-0.002,0.086-0.002,0.129c0,6.627,5.373,12,12,12
		c6.617,0,11.982-5.356,11.998-11.969l0,0.028c0.009-0.266,0.28-6.558,5.164-10.433c9.536-7.568,14.788-17.396,14.788-27.674
		S53.345,125.785,43.809,118.218z M38.646,32.091l0,0.05h-0.003C38.644,32.125,38.646,32.108,38.646,32.091z"/>
	<path fill="#E73828" d="M213.836,389.102c0.034-0.287,0.071-0.574,0.084-0.863c0.022-0.494,0.523-12.274-0.795-25.86
		c-1.981-20.409-6.902-34.006-15.044-41.567c-0.535-0.496-1.114-0.943-1.73-1.335c-1.096-0.696-5.108-2.969-10.716-2.969
		c-5.774,0-16.122,2.44-23.368,17.99c-0.366,0.095-0.806,0.162-1.321,0.162c-2.19,0-10.351-1.396-23.417-19.346
		c-0.161-0.221-0.328-0.436-0.503-0.645c-2.815-3.36-8.386-6.951-15.579-6.951c-4.812,0-9.615,1.567-14.274,4.657
		c-0.724,0.48-1.395,1.038-1.999,1.664c-0.393,0.406-39.699,40.72-77.834,46.654c-1.241,0.193-2.444,0.58-3.565,1.146
		c-2.024,1.022-19.874,10.508-23.244,28.506c-0.237,1.267-0.411,2.654-0.484,4.142c-0.004,0.045-0.013,0.089-0.017,0.134
		c-0.032,0.432-0.037,0.86-0.023,1.283c-0.027,7.236,2.452,16.634,11.607,26.806c1.771,1.967,4.143,3.294,6.747,3.773
		c0.957,0.176,24.231,4.312,94.649,4.312c26.513,0,56.573-0.589,89.346-1.75c3.451-0.122,6.681-1.731,8.866-4.404
		c2.185-2.674,3.111-6.165,2.544-9.571c-0.776-4.66-1.513-12.954-0.976-19.471C213.771,393.514,214.094,391.267,213.836,389.102z
		 M120.521,332.635c1.556,2.014,3.116,3.9,4.678,5.682c-9.342,8.442-18.147,12.739-25.593,12.52
		C109.726,342.958,117.167,335.932,120.521,332.635z M75.853,367.09c4.888,3.454,11.892,6.906,20.923,7.635
		c1.159,0.094,2.319,0.14,3.482,0.14c14.137,0,28.588-6.904,43.009-20.563c0.14-0.132,0.262-0.275,0.393-0.412
		c5.762,3.165,11.532,4.771,17.285,4.771c11.703,0,18.471-6.603,19.708-7.927c1.059-1.132,1.888-2.458,2.442-3.905
		c0.583-1.523,1.138-2.712,1.634-3.634c2.864,6.843,4.666,18.68,5.186,30.612c-16.935-3.154-39.783-1.621-69.136,4.599
		c-29.312,6.211-65.885,6.528-88.042,5.979c0.19-0.126,0.374-0.246,0.549-0.357C48.26,381.299,62.9,374.725,75.853,367.09z
		 M113.01,406.798c-7.244,0-13.953-0.046-20.192-0.126c11.172-1.033,22.41-2.558,32.936-4.788
		c34.362-7.281,52.967-6.334,62.878-3.805c-0.069,2.558-0.029,5.068,0.079,7.413C161.172,406.359,135.759,406.798,113.01,406.798z"
		/>
</g>
</svg>
