<?xml version="1.0" encoding="utf-8"?>
<!-- Generator: Adobe Illustrator 18.0.0, SVG Export Plug-In . SVG Version: 6.00 Build 0)  -->
<!DOCTYPE svg PUBLIC "-//W3C//DTD SVG 1.1//EN" "http://www.w3.org/Graphics/SVG/1.1/DTD/svg11.dtd">
<svg version="1.1" id="图层_1" xmlns="http://www.w3.org/2000/svg" xmlns:xlink="http://www.w3.org/1999/xlink" x="0px" y="0px"
	 viewBox="45.5 24.2 32.7 28.1" enable-background="new 45.5 24.2 32.7 28.1" xml:space="preserve">
<g>
	<path fill="#FF3333" d="M69.7,38.1c-1.3-0.2-0.7-0.9-0.7-0.9s1.2-2-0.2-3.5c-1.8-1.8-6.3,0.2-6.3,0.2c-1.7,0.5-1.3-0.2-1-1.6
		c0-1.6-0.5-4.2-5.1-2.6c-4.6,1.6-8.5,7-8.5,7c-2.7,3.6-2.4,6.4-2.4,6.4c0.7,6.2,7.3,7.9,12.4,8.3c5.4,0.4,12.7-1.9,14.9-6.5
		C75,40.2,71,38.3,69.7,38.1z M58.3,49.7c-5.4,0.2-9.7-2.4-9.7-6c0-3.6,4.3-6.4,9.7-6.7c5.4-0.2,9.7,2,9.7,5.5
		C68,46.1,63.7,49.4,58.3,49.7z"/>
	<path fill="#FF3333" d="M57.3,39.3C51.9,40,52.5,45,52.5,45s-0.1,1.6,1.4,2.4c3.1,1.7,6.4,0.7,8-1.4C63.6,43.9,62.7,38.7,57.3,39.3
		z M55.9,46.4c-1,0.1-1.8-0.5-1.8-1.3c0-0.8,0.7-1.7,1.7-1.8c1.2-0.1,1.9,0.6,1.9,1.4C57.7,45.5,56.9,46.3,55.9,46.4z M59.1,43.7
		c-0.3,0.3-0.8,0.2-0.9-0.1c-0.2-0.3-0.1-0.8,0.2-1c0.4-0.3,0.8-0.2,1,0.1C59.6,43,59.4,43.5,59.1,43.7z"/>
	<path fill="#FF3333" d="M72.4,35.9c0.4,0,0.8-0.3,0.9-0.7c0,0,0-0.1,0-0.1c0.7-5.9-4.8-4.9-4.8-4.9c-0.5,0-0.9,0.4-0.9,0.9
		c0,0.5,0.4,0.9,0.9,0.9c3.9-0.9,3.1,3.1,3.1,3.1C71.5,35.5,71.9,35.9,72.4,35.9z"/>
	<path fill="#FF3333" d="M71.7,25.6c-1.9-0.4-3.9-0.1-4.4,0c0,0-0.1,0-0.1,0.1c0,0,0,0,0,0c-0.5,0.2-0.9,0.7-0.9,1.2
		c0,0.7,0.6,1.3,1.3,1.3c0,0,0.7-0.1,1.2-0.3c0.5-0.2,4.4-0.1,6.4,3.1c1.1,2.4,0.5,4,0.4,4.3c0,0-0.3,0.6-0.3,1.2
		c0,0.7,0.6,1.2,1.3,1.2c0.6,0,1.1-0.1,1.2-1.1h0C79.8,29.7,75.1,26.4,71.7,25.6z"/>
</g>
</svg>
