<?xml version="1.0" encoding="utf-8"?>
<!-- Generator: Adobe Illustrator 18.0.0, SVG Export Plug-In . SVG Version: 6.00 Build 0)  -->
<!DOCTYPE svg PUBLIC "-//W3C//DTD SVG 1.1//EN" "http://www.w3.org/Graphics/SVG/1.1/DTD/svg11.dtd">
<svg version="1.1" id="图层_1" xmlns="http://www.w3.org/2000/svg" xmlns:xlink="http://www.w3.org/1999/xlink" x="0px" y="0px"
	 viewBox="22.9 15.2 32.8 27.1" enable-background="new 22.9 15.2 32.8 27.1" xml:space="preserve">
<g>
	<path fill="#009471" d="M44.9,23.7c0.4,0,0.7,0,1.1,0.1c-1-4.6-5.8-7.9-11.4-7.9c-6.2,0-11.3,4.2-11.3,9.6c0,3.1,1.7,5.6,4.5,7.6
		l-1.1,3.4l3.9-2c1.4,0.3,2.5,0.6,4,0.6c0.4,0,0.7,0,1.1,0c-0.2-0.8-0.3-1.5-0.3-2.4C35.3,27.7,39.5,23.7,44.9,23.7z M38.8,20.6
		c0.9,0,1.4,0.6,1.4,1.4c0,0.8-0.6,1.4-1.4,1.4c-0.8,0-1.7-0.6-1.7-1.4C37.1,21.2,38,20.6,38.8,20.6z M30.9,23.4
		c-0.8,0-1.7-0.6-1.7-1.4c0-0.9,0.9-1.4,1.7-1.4s1.4,0.6,1.4,1.4C32.3,22.9,31.8,23.4,30.9,23.4z"/>
	<path fill="#009471" d="M55.2,32.5c0-4.5-4.5-8.2-9.6-8.2c-5.4,0-9.6,3.7-9.6,8.2c0,4.5,4.2,8.2,9.6,8.2c1.1,0,2.3-0.3,3.4-0.6
		l3.1,1.7L51.2,39C53.5,37.3,55.2,35,55.2,32.5z M42.5,31.1c-0.6,0-1.1-0.6-1.1-1.1c0-0.6,0.6-1.1,1.1-1.1c0.9,0,1.4,0.6,1.4,1.1
		C43.9,30.5,43.3,31.1,42.5,31.1z M48.7,31.1c-0.6,0-1.1-0.6-1.1-1.1c0-0.6,0.6-1.1,1.1-1.1c0.8,0,1.4,0.6,1.4,1.1
		C50.1,30.5,49.6,31.1,48.7,31.1z"/>
</g>
</svg>
